<mxfile host="Electron" agent="Mozilla/5.0 (Macintosh; Intel Mac OS X 10_15_7) AppleWebKit/537.36 (KHTML, like Gecko) draw.io/24.7.17 Chrome/128.0.6613.36 Electron/32.0.1 Safari/537.36" version="24.7.17">
  <diagram id="R2lEEEUBdFMjLlhIrx00" name="Page-1">
    <mxGraphModel dx="437" dy="256" grid="1" gridSize="10" guides="1" tooltips="1" connect="1" arrows="1" fold="1" page="1" pageScale="1" pageWidth="1169" pageHeight="827" math="0" shadow="0" extFonts="Permanent Marker^https://fonts.googleapis.com/css?family=Permanent+Marker">
      <root>
        <mxCell id="0" />
        <mxCell id="1" parent="0" />
        <mxCell id="rlZl26VW5r2tXbXL2Wnd-157" value="学生" style="rounded=0;whiteSpace=wrap;html=1;fontFamily=宋体-简;" parent="1" vertex="1">
          <mxGeometry x="90" y="260" width="120" height="40" as="geometry" />
        </mxCell>
        <mxCell id="rlZl26VW5r2tXbXL2Wnd-158" value="学号" style="ellipse;whiteSpace=wrap;html=1;fontStyle=4;fontFamily=宋体-简;" parent="1" vertex="1">
          <mxGeometry x="40" y="220" width="40" height="30" as="geometry" />
        </mxCell>
        <mxCell id="rlZl26VW5r2tXbXL2Wnd-159" value="姓名" style="ellipse;whiteSpace=wrap;html=1;fontFamily=宋体-简;" parent="1" vertex="1">
          <mxGeometry x="90" y="220" width="40" height="30" as="geometry" />
        </mxCell>
        <mxCell id="rlZl26VW5r2tXbXL2Wnd-160" value="性别" style="ellipse;whiteSpace=wrap;html=1;fontFamily=宋体-简;" parent="1" vertex="1">
          <mxGeometry x="140" y="220" width="40" height="30" as="geometry" />
        </mxCell>
        <mxCell id="rlZl26VW5r2tXbXL2Wnd-161" value="" style="endArrow=none;html=1;rounded=0;entryX=0.5;entryY=1;entryDx=0;entryDy=0;exitX=0.2;exitY=0;exitDx=0;exitDy=0;exitPerimeter=0;fontFamily=宋体-简;" parent="1" source="rlZl26VW5r2tXbXL2Wnd-157" target="rlZl26VW5r2tXbXL2Wnd-158" edge="1">
          <mxGeometry width="50" height="50" relative="1" as="geometry">
            <mxPoint x="184" y="298.39" as="sourcePoint" />
            <mxPoint x="234" y="248.39" as="targetPoint" />
          </mxGeometry>
        </mxCell>
        <mxCell id="rlZl26VW5r2tXbXL2Wnd-162" value="" style="endArrow=none;html=1;rounded=0;entryX=0.5;entryY=1;entryDx=0;entryDy=0;exitX=0.4;exitY=0;exitDx=0;exitDy=0;exitPerimeter=0;fontFamily=宋体-简;" parent="1" source="rlZl26VW5r2tXbXL2Wnd-157" target="rlZl26VW5r2tXbXL2Wnd-159" edge="1">
          <mxGeometry width="50" height="50" relative="1" as="geometry">
            <mxPoint x="154" y="298.39" as="sourcePoint" />
            <mxPoint x="204" y="248.39" as="targetPoint" />
          </mxGeometry>
        </mxCell>
        <mxCell id="rlZl26VW5r2tXbXL2Wnd-163" value="" style="endArrow=none;html=1;rounded=0;entryX=0.5;entryY=1;entryDx=0;entryDy=0;exitX=0.6;exitY=0;exitDx=0;exitDy=0;exitPerimeter=0;fontFamily=宋体-简;" parent="1" source="rlZl26VW5r2tXbXL2Wnd-157" target="rlZl26VW5r2tXbXL2Wnd-160" edge="1">
          <mxGeometry width="50" height="50" relative="1" as="geometry">
            <mxPoint x="184" y="298.39" as="sourcePoint" />
            <mxPoint x="234" y="248.39" as="targetPoint" />
          </mxGeometry>
        </mxCell>
        <mxCell id="rlZl26VW5r2tXbXL2Wnd-164" value="联系方式" style="ellipse;whiteSpace=wrap;html=1;fontFamily=宋体-简;" parent="1" vertex="1">
          <mxGeometry x="190" y="220" width="70" height="30" as="geometry" />
        </mxCell>
        <mxCell id="rlZl26VW5r2tXbXL2Wnd-165" value="" style="endArrow=none;html=1;rounded=0;entryX=0.5;entryY=1;entryDx=0;entryDy=0;exitX=0.8;exitY=0;exitDx=0;exitDy=0;exitPerimeter=0;fontFamily=宋体-简;" parent="1" source="rlZl26VW5r2tXbXL2Wnd-157" target="rlZl26VW5r2tXbXL2Wnd-164" edge="1">
          <mxGeometry width="50" height="50" relative="1" as="geometry">
            <mxPoint x="184" y="298.39" as="sourcePoint" />
            <mxPoint x="234" y="248.39" as="targetPoint" />
          </mxGeometry>
        </mxCell>
        <mxCell id="rlZl26VW5r2tXbXL2Wnd-166" value="班级" style="rounded=0;whiteSpace=wrap;html=1;fontFamily=宋体-简;" parent="1" vertex="1">
          <mxGeometry x="170" y="430" width="120" height="40" as="geometry" />
        </mxCell>
        <mxCell id="rlZl26VW5r2tXbXL2Wnd-167" value="院系" style="rounded=0;whiteSpace=wrap;html=1;fontFamily=宋体-简;" parent="1" vertex="1">
          <mxGeometry x="730" y="430" width="120" height="40" as="geometry" />
        </mxCell>
        <mxCell id="rlZl26VW5r2tXbXL2Wnd-168" value="专业" style="rounded=0;whiteSpace=wrap;html=1;fontFamily=宋体-简;" parent="1" vertex="1">
          <mxGeometry x="450" y="430" width="120" height="40" as="geometry" />
        </mxCell>
        <mxCell id="rlZl26VW5r2tXbXL2Wnd-169" value="专业-院系" style="rhombus;whiteSpace=wrap;html=1;fontFamily=宋体-简;" parent="1" vertex="1">
          <mxGeometry x="610" y="430" width="80" height="40" as="geometry" />
        </mxCell>
        <mxCell id="rlZl26VW5r2tXbXL2Wnd-170" value="" style="endArrow=none;html=1;rounded=0;entryX=0;entryY=0.5;entryDx=0;entryDy=0;exitX=1;exitY=0.5;exitDx=0;exitDy=0;fontFamily=宋体-简;" parent="1" source="rlZl26VW5r2tXbXL2Wnd-168" target="rlZl26VW5r2tXbXL2Wnd-169" edge="1">
          <mxGeometry width="50" height="50" relative="1" as="geometry">
            <mxPoint x="644" y="512" as="sourcePoint" />
            <mxPoint x="654" y="572" as="targetPoint" />
          </mxGeometry>
        </mxCell>
        <mxCell id="rlZl26VW5r2tXbXL2Wnd-171" value="n" style="edgeLabel;html=1;align=center;verticalAlign=middle;resizable=0;points=[];fontFamily=宋体-简;" parent="rlZl26VW5r2tXbXL2Wnd-170" vertex="1" connectable="0">
          <mxGeometry relative="1" as="geometry">
            <mxPoint as="offset" />
          </mxGeometry>
        </mxCell>
        <mxCell id="rlZl26VW5r2tXbXL2Wnd-172" value="" style="endArrow=none;html=1;rounded=0;entryX=0;entryY=0.5;entryDx=0;entryDy=0;fontFamily=宋体-简;exitX=1;exitY=0.5;exitDx=0;exitDy=0;" parent="1" source="rlZl26VW5r2tXbXL2Wnd-169" target="rlZl26VW5r2tXbXL2Wnd-167" edge="1">
          <mxGeometry width="50" height="50" relative="1" as="geometry">
            <mxPoint x="674" y="450" as="sourcePoint" />
            <mxPoint x="604" y="458" as="targetPoint" />
          </mxGeometry>
        </mxCell>
        <mxCell id="rlZl26VW5r2tXbXL2Wnd-173" value="1" style="edgeLabel;html=1;align=center;verticalAlign=middle;resizable=0;points=[];fontFamily=宋体-简;" parent="rlZl26VW5r2tXbXL2Wnd-172" vertex="1" connectable="0">
          <mxGeometry relative="1" as="geometry">
            <mxPoint as="offset" />
          </mxGeometry>
        </mxCell>
        <mxCell id="rlZl26VW5r2tXbXL2Wnd-174" value="班级-专业" style="rhombus;whiteSpace=wrap;html=1;fontFamily=宋体-简;" parent="1" vertex="1">
          <mxGeometry x="330" y="430" width="80" height="40" as="geometry" />
        </mxCell>
        <mxCell id="rlZl26VW5r2tXbXL2Wnd-175" value="" style="endArrow=none;html=1;rounded=0;entryX=1;entryY=0.5;entryDx=0;entryDy=0;exitX=0;exitY=0.5;exitDx=0;exitDy=0;fontFamily=宋体-简;" parent="1" source="rlZl26VW5r2tXbXL2Wnd-174" target="rlZl26VW5r2tXbXL2Wnd-166" edge="1">
          <mxGeometry width="50" height="50" relative="1" as="geometry">
            <mxPoint x="344" y="580" as="sourcePoint" />
            <mxPoint x="394" y="530" as="targetPoint" />
          </mxGeometry>
        </mxCell>
        <mxCell id="rlZl26VW5r2tXbXL2Wnd-176" value="n" style="edgeLabel;html=1;align=center;verticalAlign=middle;resizable=0;points=[];fontFamily=宋体-简;" parent="rlZl26VW5r2tXbXL2Wnd-175" vertex="1" connectable="0">
          <mxGeometry relative="1" as="geometry">
            <mxPoint as="offset" />
          </mxGeometry>
        </mxCell>
        <mxCell id="rlZl26VW5r2tXbXL2Wnd-177" value="" style="endArrow=none;html=1;rounded=0;exitX=1;exitY=0.5;exitDx=0;exitDy=0;entryX=0;entryY=0.5;entryDx=0;entryDy=0;fontFamily=宋体-简;" parent="1" source="rlZl26VW5r2tXbXL2Wnd-174" target="rlZl26VW5r2tXbXL2Wnd-168" edge="1">
          <mxGeometry width="50" height="50" relative="1" as="geometry">
            <mxPoint x="554" y="560" as="sourcePoint" />
            <mxPoint x="604" y="510" as="targetPoint" />
          </mxGeometry>
        </mxCell>
        <mxCell id="rlZl26VW5r2tXbXL2Wnd-178" value="1" style="edgeLabel;html=1;align=center;verticalAlign=middle;resizable=0;points=[];fontFamily=宋体-简;" parent="rlZl26VW5r2tXbXL2Wnd-177" vertex="1" connectable="0">
          <mxGeometry relative="1" as="geometry">
            <mxPoint as="offset" />
          </mxGeometry>
        </mxCell>
        <mxCell id="rlZl26VW5r2tXbXL2Wnd-179" value="班级号" style="ellipse;whiteSpace=wrap;html=1;fontStyle=4;fontFamily=宋体-简;" parent="1" vertex="1">
          <mxGeometry x="200" y="490" width="60" height="30" as="geometry" />
        </mxCell>
        <mxCell id="rlZl26VW5r2tXbXL2Wnd-185" value="" style="endArrow=none;html=1;rounded=0;entryX=0.5;entryY=1;entryDx=0;entryDy=0;exitX=0.5;exitY=0;exitDx=0;exitDy=0;fontFamily=宋体-简;" parent="1" source="rlZl26VW5r2tXbXL2Wnd-179" target="rlZl26VW5r2tXbXL2Wnd-166" edge="1">
          <mxGeometry width="50" height="50" relative="1" as="geometry">
            <mxPoint x="364" y="460" as="sourcePoint" />
            <mxPoint x="414" y="410" as="targetPoint" />
          </mxGeometry>
        </mxCell>
        <mxCell id="rlZl26VW5r2tXbXL2Wnd-186" value="专业名称" style="ellipse;whiteSpace=wrap;html=1;fontFamily=宋体-简;" parent="1" vertex="1">
          <mxGeometry x="520" y="490" width="60" height="30" as="geometry" />
        </mxCell>
        <mxCell id="rlZl26VW5r2tXbXL2Wnd-187" value="" style="endArrow=none;html=1;rounded=0;entryX=0.75;entryY=1;entryDx=0;entryDy=0;exitX=0.5;exitY=0;exitDx=0;exitDy=0;fontFamily=宋体-简;" parent="1" source="rlZl26VW5r2tXbXL2Wnd-186" target="rlZl26VW5r2tXbXL2Wnd-168" edge="1">
          <mxGeometry width="50" height="50" relative="1" as="geometry">
            <mxPoint x="224" y="500" as="sourcePoint" />
            <mxPoint x="224" y="480" as="targetPoint" />
          </mxGeometry>
        </mxCell>
        <mxCell id="rlZl26VW5r2tXbXL2Wnd-188" value="专业号" style="ellipse;whiteSpace=wrap;html=1;fontStyle=4;fontFamily=宋体-简;" parent="1" vertex="1">
          <mxGeometry x="440" y="490" width="60" height="30" as="geometry" />
        </mxCell>
        <mxCell id="rlZl26VW5r2tXbXL2Wnd-189" value="" style="endArrow=none;html=1;rounded=0;entryX=0.25;entryY=1;entryDx=0;entryDy=0;exitX=0.5;exitY=0;exitDx=0;exitDy=0;fontFamily=宋体-简;" parent="1" source="rlZl26VW5r2tXbXL2Wnd-188" target="rlZl26VW5r2tXbXL2Wnd-168" edge="1">
          <mxGeometry width="50" height="50" relative="1" as="geometry">
            <mxPoint x="534" y="500" as="sourcePoint" />
            <mxPoint x="534" y="480" as="targetPoint" />
          </mxGeometry>
        </mxCell>
        <mxCell id="rlZl26VW5r2tXbXL2Wnd-190" value="院系名称" style="ellipse;whiteSpace=wrap;html=1;fontFamily=宋体-简;" parent="1" vertex="1">
          <mxGeometry x="800" y="490" width="60" height="30" as="geometry" />
        </mxCell>
        <mxCell id="rlZl26VW5r2tXbXL2Wnd-191" value="" style="endArrow=none;html=1;rounded=0;exitX=0.5;exitY=0;exitDx=0;exitDy=0;entryX=0.75;entryY=1;entryDx=0;entryDy=0;fontFamily=宋体-简;" parent="1" source="rlZl26VW5r2tXbXL2Wnd-190" target="rlZl26VW5r2tXbXL2Wnd-167" edge="1">
          <mxGeometry width="50" height="50" relative="1" as="geometry">
            <mxPoint x="504" y="500" as="sourcePoint" />
            <mxPoint x="804" y="470" as="targetPoint" />
          </mxGeometry>
        </mxCell>
        <mxCell id="rlZl26VW5r2tXbXL2Wnd-192" value="院系号" style="ellipse;whiteSpace=wrap;html=1;fontStyle=4;fontFamily=宋体-简;" parent="1" vertex="1">
          <mxGeometry x="720" y="490" width="60" height="30" as="geometry" />
        </mxCell>
        <mxCell id="rlZl26VW5r2tXbXL2Wnd-193" value="" style="endArrow=none;html=1;rounded=0;exitX=0.5;exitY=0;exitDx=0;exitDy=0;entryX=0.25;entryY=1;entryDx=0;entryDy=0;fontFamily=宋体-简;" parent="1" source="rlZl26VW5r2tXbXL2Wnd-192" target="rlZl26VW5r2tXbXL2Wnd-167" edge="1">
          <mxGeometry width="50" height="50" relative="1" as="geometry">
            <mxPoint x="814" y="500" as="sourcePoint" />
            <mxPoint x="754" y="480" as="targetPoint" />
          </mxGeometry>
        </mxCell>
        <mxCell id="rlZl26VW5r2tXbXL2Wnd-194" value="学生-班级" style="rhombus;whiteSpace=wrap;html=1;fontFamily=宋体-简;" parent="1" vertex="1">
          <mxGeometry x="110" y="350" width="80" height="40" as="geometry" />
        </mxCell>
        <mxCell id="rlZl26VW5r2tXbXL2Wnd-195" value="" style="endArrow=none;html=1;rounded=0;exitX=0.5;exitY=1;exitDx=0;exitDy=0;entryX=0.5;entryY=0;entryDx=0;entryDy=0;fontFamily=宋体-简;" parent="1" source="rlZl26VW5r2tXbXL2Wnd-194" target="rlZl26VW5r2tXbXL2Wnd-166" edge="1">
          <mxGeometry width="50" height="50" relative="1" as="geometry">
            <mxPoint x="304" y="380.71999999999997" as="sourcePoint" />
            <mxPoint x="344" y="380.71999999999997" as="targetPoint" />
          </mxGeometry>
        </mxCell>
        <mxCell id="rlZl26VW5r2tXbXL2Wnd-196" value="1" style="edgeLabel;html=1;align=center;verticalAlign=middle;resizable=0;points=[];fontFamily=宋体-简;" parent="rlZl26VW5r2tXbXL2Wnd-195" vertex="1" connectable="0">
          <mxGeometry relative="1" as="geometry">
            <mxPoint as="offset" />
          </mxGeometry>
        </mxCell>
        <mxCell id="rlZl26VW5r2tXbXL2Wnd-197" value="" style="endArrow=none;html=1;rounded=0;entryX=0.5;entryY=1;entryDx=0;entryDy=0;exitX=0.5;exitY=0;exitDx=0;exitDy=0;fontFamily=宋体-简;" parent="1" source="rlZl26VW5r2tXbXL2Wnd-194" target="rlZl26VW5r2tXbXL2Wnd-157" edge="1">
          <mxGeometry width="50" height="50" relative="1" as="geometry">
            <mxPoint x="264" y="450" as="sourcePoint" />
            <mxPoint x="224" y="450" as="targetPoint" />
          </mxGeometry>
        </mxCell>
        <mxCell id="rlZl26VW5r2tXbXL2Wnd-198" value="n" style="edgeLabel;html=1;align=center;verticalAlign=middle;resizable=0;points=[];fontFamily=宋体-简;" parent="rlZl26VW5r2tXbXL2Wnd-197" vertex="1" connectable="0">
          <mxGeometry relative="1" as="geometry">
            <mxPoint as="offset" />
          </mxGeometry>
        </mxCell>
        <mxCell id="rlZl26VW5r2tXbXL2Wnd-209" value="教师" style="rounded=0;whiteSpace=wrap;html=1;fontFamily=宋体-简;" parent="1" vertex="1">
          <mxGeometry x="730" y="260" width="120" height="40" as="geometry" />
        </mxCell>
        <mxCell id="rlZl26VW5r2tXbXL2Wnd-210" value="工号" style="ellipse;whiteSpace=wrap;html=1;fontStyle=4;fontFamily=宋体-简;" parent="1" vertex="1">
          <mxGeometry x="680" y="220" width="40" height="30" as="geometry" />
        </mxCell>
        <mxCell id="rlZl26VW5r2tXbXL2Wnd-211" value="姓名" style="ellipse;whiteSpace=wrap;html=1;fontFamily=宋体-简;" parent="1" vertex="1">
          <mxGeometry x="730" y="220" width="40" height="30" as="geometry" />
        </mxCell>
        <mxCell id="rlZl26VW5r2tXbXL2Wnd-212" value="性别" style="ellipse;whiteSpace=wrap;html=1;fontFamily=宋体-简;" parent="1" vertex="1">
          <mxGeometry x="780" y="220" width="40" height="30" as="geometry" />
        </mxCell>
        <mxCell id="rlZl26VW5r2tXbXL2Wnd-213" value="" style="endArrow=none;html=1;rounded=0;entryX=0.5;entryY=1;entryDx=0;entryDy=0;exitX=0.2;exitY=0;exitDx=0;exitDy=0;exitPerimeter=0;fontFamily=宋体-简;" parent="1" source="rlZl26VW5r2tXbXL2Wnd-209" target="rlZl26VW5r2tXbXL2Wnd-210" edge="1">
          <mxGeometry width="50" height="50" relative="1" as="geometry">
            <mxPoint x="758" y="256.39" as="sourcePoint" />
            <mxPoint x="874" y="246.39" as="targetPoint" />
          </mxGeometry>
        </mxCell>
        <mxCell id="rlZl26VW5r2tXbXL2Wnd-214" value="" style="endArrow=none;html=1;rounded=0;entryX=0.5;entryY=1;entryDx=0;entryDy=0;exitX=0.4;exitY=0;exitDx=0;exitDy=0;exitPerimeter=0;fontFamily=宋体-简;" parent="1" source="rlZl26VW5r2tXbXL2Wnd-209" target="rlZl26VW5r2tXbXL2Wnd-211" edge="1">
          <mxGeometry width="50" height="50" relative="1" as="geometry">
            <mxPoint x="782" y="256.39" as="sourcePoint" />
            <mxPoint x="844" y="246.39" as="targetPoint" />
          </mxGeometry>
        </mxCell>
        <mxCell id="rlZl26VW5r2tXbXL2Wnd-215" value="" style="endArrow=none;html=1;rounded=0;entryX=0.5;entryY=1;entryDx=0;entryDy=0;exitX=0.6;exitY=0;exitDx=0;exitDy=0;exitPerimeter=0;fontFamily=宋体-简;" parent="1" source="rlZl26VW5r2tXbXL2Wnd-209" target="rlZl26VW5r2tXbXL2Wnd-212" edge="1">
          <mxGeometry width="50" height="50" relative="1" as="geometry">
            <mxPoint x="806" y="256.39" as="sourcePoint" />
            <mxPoint x="874" y="246.39" as="targetPoint" />
          </mxGeometry>
        </mxCell>
        <mxCell id="rlZl26VW5r2tXbXL2Wnd-216" value="联系方式" style="ellipse;whiteSpace=wrap;html=1;fontFamily=宋体-简;" parent="1" vertex="1">
          <mxGeometry x="830" y="220" width="70" height="30" as="geometry" />
        </mxCell>
        <mxCell id="rlZl26VW5r2tXbXL2Wnd-217" value="" style="endArrow=none;html=1;rounded=0;entryX=0.5;entryY=1;entryDx=0;entryDy=0;exitX=0.8;exitY=0;exitDx=0;exitDy=0;exitPerimeter=0;fontFamily=宋体-简;" parent="1" source="rlZl26VW5r2tXbXL2Wnd-209" target="rlZl26VW5r2tXbXL2Wnd-216" edge="1">
          <mxGeometry width="50" height="50" relative="1" as="geometry">
            <mxPoint x="830" y="256.39" as="sourcePoint" />
            <mxPoint x="874" y="246.39" as="targetPoint" />
          </mxGeometry>
        </mxCell>
        <mxCell id="rlZl26VW5r2tXbXL2Wnd-218" value="教师-院系" style="rhombus;whiteSpace=wrap;html=1;fontFamily=宋体-简;" parent="1" vertex="1">
          <mxGeometry x="750" y="330" width="80" height="40" as="geometry" />
        </mxCell>
        <mxCell id="rlZl26VW5r2tXbXL2Wnd-219" value="" style="endArrow=none;html=1;rounded=0;entryX=0.5;entryY=1;entryDx=0;entryDy=0;exitX=0.5;exitY=0;exitDx=0;exitDy=0;fontFamily=宋体-简;" parent="1" source="rlZl26VW5r2tXbXL2Wnd-218" target="rlZl26VW5r2tXbXL2Wnd-209" edge="1">
          <mxGeometry width="50" height="50" relative="1" as="geometry">
            <mxPoint x="444" y="360" as="sourcePoint" />
            <mxPoint x="244" y="330" as="targetPoint" />
          </mxGeometry>
        </mxCell>
        <mxCell id="rlZl26VW5r2tXbXL2Wnd-220" value="n" style="edgeLabel;html=1;align=center;verticalAlign=middle;resizable=0;points=[];fontFamily=宋体-简;" parent="rlZl26VW5r2tXbXL2Wnd-219" vertex="1" connectable="0">
          <mxGeometry relative="1" as="geometry">
            <mxPoint as="offset" />
          </mxGeometry>
        </mxCell>
        <mxCell id="rlZl26VW5r2tXbXL2Wnd-221" value="" style="endArrow=none;html=1;rounded=0;exitX=0.5;exitY=1;exitDx=0;exitDy=0;entryX=0.5;entryY=0;entryDx=0;entryDy=0;fontFamily=宋体-简;" parent="1" source="rlZl26VW5r2tXbXL2Wnd-218" target="rlZl26VW5r2tXbXL2Wnd-167" edge="1">
          <mxGeometry width="50" height="50" relative="1" as="geometry">
            <mxPoint x="424" y="390.02" as="sourcePoint" />
            <mxPoint x="754" y="420.02" as="targetPoint" />
          </mxGeometry>
        </mxCell>
        <mxCell id="rlZl26VW5r2tXbXL2Wnd-222" value="1" style="edgeLabel;html=1;align=center;verticalAlign=middle;resizable=0;points=[];fontFamily=宋体-简;" parent="rlZl26VW5r2tXbXL2Wnd-221" vertex="1" connectable="0">
          <mxGeometry relative="1" as="geometry">
            <mxPoint as="offset" />
          </mxGeometry>
        </mxCell>
        <mxCell id="rlZl26VW5r2tXbXL2Wnd-223" value="班主任" style="rhombus;whiteSpace=wrap;html=1;fontFamily=宋体-简;" parent="1" vertex="1">
          <mxGeometry x="450" y="280" width="80" height="40" as="geometry" />
        </mxCell>
        <mxCell id="rlZl26VW5r2tXbXL2Wnd-224" value="" style="endArrow=none;html=1;rounded=0;exitX=0;exitY=1;exitDx=0;exitDy=0;entryX=1;entryY=0.5;entryDx=0;entryDy=0;fontFamily=宋体-简;" parent="1" source="rlZl26VW5r2tXbXL2Wnd-209" target="rlZl26VW5r2tXbXL2Wnd-223" edge="1">
          <mxGeometry width="50" height="50" relative="1" as="geometry">
            <mxPoint x="444" y="400" as="sourcePoint" />
            <mxPoint x="774" y="430" as="targetPoint" />
          </mxGeometry>
        </mxCell>
        <mxCell id="rlZl26VW5r2tXbXL2Wnd-225" value="1" style="edgeLabel;html=1;align=center;verticalAlign=middle;resizable=0;points=[];fontFamily=宋体-简;" parent="rlZl26VW5r2tXbXL2Wnd-224" vertex="1" connectable="0">
          <mxGeometry relative="1" as="geometry">
            <mxPoint as="offset" />
          </mxGeometry>
        </mxCell>
        <mxCell id="rlZl26VW5r2tXbXL2Wnd-226" value="" style="endArrow=none;html=1;rounded=0;exitX=0;exitY=0.5;exitDx=0;exitDy=0;fontFamily=宋体-简;entryX=1;entryY=0;entryDx=0;entryDy=0;" parent="1" source="rlZl26VW5r2tXbXL2Wnd-223" target="rlZl26VW5r2tXbXL2Wnd-166" edge="1">
          <mxGeometry width="50" height="50" relative="1" as="geometry">
            <mxPoint x="475" y="320" as="sourcePoint" />
            <mxPoint x="280" y="480" as="targetPoint" />
          </mxGeometry>
        </mxCell>
        <mxCell id="rlZl26VW5r2tXbXL2Wnd-227" value="1" style="edgeLabel;html=1;align=center;verticalAlign=middle;resizable=0;points=[];fontFamily=宋体-简;" parent="rlZl26VW5r2tXbXL2Wnd-226" vertex="1" connectable="0">
          <mxGeometry relative="1" as="geometry">
            <mxPoint as="offset" />
          </mxGeometry>
        </mxCell>
        <mxCell id="rlZl26VW5r2tXbXL2Wnd-228" value="课程" style="rounded=0;whiteSpace=wrap;html=1;fontFamily=宋体-简;" parent="1" vertex="1">
          <mxGeometry x="650" y="90" width="120" height="40" as="geometry" />
        </mxCell>
        <mxCell id="rlZl26VW5r2tXbXL2Wnd-229" value="课程名称" style="ellipse;whiteSpace=wrap;html=1;fontFamily=宋体-简;" parent="1" vertex="1">
          <mxGeometry x="650" y="40" width="60" height="30" as="geometry" />
        </mxCell>
        <mxCell id="rlZl26VW5r2tXbXL2Wnd-230" value="学分" style="ellipse;whiteSpace=wrap;html=1;fontFamily=宋体-简;" parent="1" vertex="1">
          <mxGeometry x="790" y="40" width="40" height="30" as="geometry" />
        </mxCell>
        <mxCell id="rlZl26VW5r2tXbXL2Wnd-231" value="课程编号" style="ellipse;whiteSpace=wrap;html=1;fontStyle=4;fontFamily=宋体-简;" parent="1" vertex="1">
          <mxGeometry x="580" y="40" width="60" height="30" as="geometry" />
        </mxCell>
        <mxCell id="rlZl26VW5r2tXbXL2Wnd-232" value="课程分类" style="ellipse;whiteSpace=wrap;html=1;fontFamily=宋体-简;" parent="1" vertex="1">
          <mxGeometry x="720" y="40" width="60" height="30" as="geometry" />
        </mxCell>
        <mxCell id="rlZl26VW5r2tXbXL2Wnd-233" value="" style="endArrow=none;html=1;rounded=0;entryX=0.5;entryY=1;entryDx=0;entryDy=0;exitX=0;exitY=0;exitDx=0;exitDy=0;fontFamily=宋体-简;" parent="1" source="rlZl26VW5r2tXbXL2Wnd-228" target="rlZl26VW5r2tXbXL2Wnd-231" edge="1">
          <mxGeometry width="50" height="50" relative="1" as="geometry">
            <mxPoint x="628" y="90" as="sourcePoint" />
            <mxPoint x="574" y="80" as="targetPoint" />
          </mxGeometry>
        </mxCell>
        <mxCell id="rlZl26VW5r2tXbXL2Wnd-234" value="" style="endArrow=none;html=1;rounded=0;entryX=0.5;entryY=1;entryDx=0;entryDy=0;exitX=0.25;exitY=0;exitDx=0;exitDy=0;fontFamily=宋体-简;" parent="1" source="rlZl26VW5r2tXbXL2Wnd-228" target="rlZl26VW5r2tXbXL2Wnd-229" edge="1">
          <mxGeometry width="50" height="50" relative="1" as="geometry">
            <mxPoint x="696" y="95" as="sourcePoint" />
            <mxPoint x="632" y="75" as="targetPoint" />
          </mxGeometry>
        </mxCell>
        <mxCell id="rlZl26VW5r2tXbXL2Wnd-235" value="" style="endArrow=none;html=1;rounded=0;entryX=0.5;entryY=1;entryDx=0;entryDy=0;exitX=0.454;exitY=0;exitDx=0;exitDy=0;exitPerimeter=0;fontFamily=宋体-简;" parent="1" source="rlZl26VW5r2tXbXL2Wnd-228" target="rlZl26VW5r2tXbXL2Wnd-232" edge="1">
          <mxGeometry width="50" height="50" relative="1" as="geometry">
            <mxPoint x="658" y="100" as="sourcePoint" />
            <mxPoint x="644" y="80" as="targetPoint" />
          </mxGeometry>
        </mxCell>
        <mxCell id="rlZl26VW5r2tXbXL2Wnd-236" value="" style="endArrow=none;html=1;rounded=0;entryX=0.5;entryY=1;entryDx=0;entryDy=0;exitX=0.75;exitY=0;exitDx=0;exitDy=0;fontFamily=宋体-简;" parent="1" source="rlZl26VW5r2tXbXL2Wnd-228" target="rlZl26VW5r2tXbXL2Wnd-230" edge="1">
          <mxGeometry width="50" height="50" relative="1" as="geometry">
            <mxPoint x="682" y="100" as="sourcePoint" />
            <mxPoint x="714" y="80" as="targetPoint" />
          </mxGeometry>
        </mxCell>
        <mxCell id="rlZl26VW5r2tXbXL2Wnd-237" value="申报" style="rhombus;whiteSpace=wrap;html=1;fontFamily=宋体-简;" parent="1" vertex="1">
          <mxGeometry x="710" y="150" width="80" height="40" as="geometry" />
        </mxCell>
        <mxCell id="rlZl26VW5r2tXbXL2Wnd-238" value="" style="endArrow=none;html=1;rounded=0;entryX=0.5;entryY=1;entryDx=0;entryDy=0;exitX=0.5;exitY=0;exitDx=0;exitDy=0;fontFamily=宋体-简;" parent="1" source="rlZl26VW5r2tXbXL2Wnd-237" target="rlZl26VW5r2tXbXL2Wnd-228" edge="1">
          <mxGeometry width="50" height="50" relative="1" as="geometry">
            <mxPoint x="654" y="169" as="sourcePoint" />
            <mxPoint x="704" y="170" as="targetPoint" />
          </mxGeometry>
        </mxCell>
        <mxCell id="rlZl26VW5r2tXbXL2Wnd-239" value="n" style="edgeLabel;html=1;align=center;verticalAlign=middle;resizable=0;points=[];fontFamily=宋体-简;" parent="rlZl26VW5r2tXbXL2Wnd-238" vertex="1" connectable="0">
          <mxGeometry relative="1" as="geometry">
            <mxPoint as="offset" />
          </mxGeometry>
        </mxCell>
        <mxCell id="rlZl26VW5r2tXbXL2Wnd-240" value="" style="endArrow=none;html=1;rounded=0;entryX=0.5;entryY=1;entryDx=0;entryDy=0;exitX=0.5;exitY=0;exitDx=0;exitDy=0;fontFamily=宋体-简;" parent="1" source="rlZl26VW5r2tXbXL2Wnd-209" target="rlZl26VW5r2tXbXL2Wnd-237" edge="1">
          <mxGeometry width="50" height="50" relative="1" as="geometry">
            <mxPoint x="664" y="109" as="sourcePoint" />
            <mxPoint x="664" y="70" as="targetPoint" />
            <Array as="points" />
          </mxGeometry>
        </mxCell>
        <mxCell id="rlZl26VW5r2tXbXL2Wnd-241" value="1" style="edgeLabel;html=1;align=center;verticalAlign=middle;resizable=0;points=[];fontFamily=宋体-简;" parent="rlZl26VW5r2tXbXL2Wnd-240" vertex="1" connectable="0">
          <mxGeometry relative="1" as="geometry">
            <mxPoint x="-10" y="-15" as="offset" />
          </mxGeometry>
        </mxCell>
        <mxCell id="rlZl26VW5r2tXbXL2Wnd-242" value="教学班" style="rounded=0;whiteSpace=wrap;html=1;fontFamily=宋体-简;" parent="1" vertex="1">
          <mxGeometry x="330" y="90" width="120" height="40" as="geometry" />
        </mxCell>
        <mxCell id="rlZl26VW5r2tXbXL2Wnd-243" value="课程-教学班" style="rhombus;whiteSpace=wrap;html=1;fontFamily=宋体-简;" parent="1" vertex="1">
          <mxGeometry x="500" y="90" width="100" height="40" as="geometry" />
        </mxCell>
        <mxCell id="rlZl26VW5r2tXbXL2Wnd-244" value="" style="endArrow=none;html=1;rounded=0;exitX=1;exitY=0.5;exitDx=0;exitDy=0;entryX=0;entryY=0.5;entryDx=0;entryDy=0;fontFamily=宋体-简;" parent="1" source="rlZl26VW5r2tXbXL2Wnd-243" target="rlZl26VW5r2tXbXL2Wnd-228" edge="1">
          <mxGeometry width="50" height="50" relative="1" as="geometry">
            <mxPoint x="600" y="110" as="sourcePoint" />
            <mxPoint x="584" y="120" as="targetPoint" />
          </mxGeometry>
        </mxCell>
        <mxCell id="rlZl26VW5r2tXbXL2Wnd-245" value="1" style="edgeLabel;html=1;align=center;verticalAlign=middle;resizable=0;points=[];fontFamily=宋体-简;" parent="rlZl26VW5r2tXbXL2Wnd-244" vertex="1" connectable="0">
          <mxGeometry relative="1" as="geometry">
            <mxPoint as="offset" />
          </mxGeometry>
        </mxCell>
        <mxCell id="rlZl26VW5r2tXbXL2Wnd-246" value="" style="endArrow=none;html=1;rounded=0;exitX=0;exitY=0.5;exitDx=0;exitDy=0;entryX=1;entryY=0.5;entryDx=0;entryDy=0;fontFamily=宋体-简;" parent="1" source="rlZl26VW5r2tXbXL2Wnd-243" target="rlZl26VW5r2tXbXL2Wnd-242" edge="1">
          <mxGeometry width="50" height="50" relative="1" as="geometry">
            <mxPoint x="474" y="109.75999999999999" as="sourcePoint" />
            <mxPoint x="444" y="130" as="targetPoint" />
          </mxGeometry>
        </mxCell>
        <mxCell id="rlZl26VW5r2tXbXL2Wnd-247" value="n" style="edgeLabel;html=1;align=center;verticalAlign=middle;resizable=0;points=[];fontFamily=宋体-简;" parent="rlZl26VW5r2tXbXL2Wnd-246" vertex="1" connectable="0">
          <mxGeometry relative="1" as="geometry">
            <mxPoint as="offset" />
          </mxGeometry>
        </mxCell>
        <mxCell id="rlZl26VW5r2tXbXL2Wnd-248" value="教师工号" style="ellipse;whiteSpace=wrap;html=1;fontFamily=宋体-简;" parent="1" vertex="1">
          <mxGeometry x="610" y="180" width="60" height="30" as="geometry" />
        </mxCell>
        <mxCell id="rlZl26VW5r2tXbXL2Wnd-249" value="教学班编号" style="ellipse;whiteSpace=wrap;html=1;fontStyle=4;fontFamily=宋体-简;" parent="1" vertex="1">
          <mxGeometry x="250" y="40" width="80" height="30" as="geometry" />
        </mxCell>
        <mxCell id="rlZl26VW5r2tXbXL2Wnd-250" value="教学班容量" style="ellipse;whiteSpace=wrap;html=1;fontFamily=宋体-简;" parent="1" vertex="1">
          <mxGeometry x="350" y="40" width="80" height="30" as="geometry" />
        </mxCell>
        <mxCell id="rlZl26VW5r2tXbXL2Wnd-251" value="申报教师工号" style="ellipse;whiteSpace=wrap;html=1;fontFamily=宋体-简;" parent="1" vertex="1">
          <mxGeometry x="810" y="155" width="90" height="30" as="geometry" />
        </mxCell>
        <mxCell id="rlZl26VW5r2tXbXL2Wnd-252" value="" style="endArrow=none;html=1;rounded=0;exitX=1;exitY=0.5;exitDx=0;exitDy=0;entryX=0;entryY=0.5;entryDx=0;entryDy=0;fontFamily=宋体-简;" parent="1" source="rlZl26VW5r2tXbXL2Wnd-237" target="rlZl26VW5r2tXbXL2Wnd-251" edge="1">
          <mxGeometry width="50" height="50" relative="1" as="geometry">
            <mxPoint x="744" y="180" as="sourcePoint" />
            <mxPoint x="794" y="130" as="targetPoint" />
          </mxGeometry>
        </mxCell>
        <mxCell id="rlZl26VW5r2tXbXL2Wnd-253" value="学院教务-院系" style="rhombus;whiteSpace=wrap;html=1;fontFamily=宋体-简;" parent="1" vertex="1">
          <mxGeometry x="660" y="370" width="100" height="40" as="geometry" />
        </mxCell>
        <mxCell id="rlZl26VW5r2tXbXL2Wnd-254" value="" style="endArrow=none;html=1;rounded=0;entryX=0.5;entryY=0;entryDx=0;entryDy=0;exitX=1;exitY=0.5;exitDx=0;exitDy=0;fontFamily=宋体-简;" parent="1" source="rlZl26VW5r2tXbXL2Wnd-253" target="rlZl26VW5r2tXbXL2Wnd-167" edge="1">
          <mxGeometry width="50" height="50" relative="1" as="geometry">
            <mxPoint x="954" y="410" as="sourcePoint" />
            <mxPoint x="994" y="410" as="targetPoint" />
          </mxGeometry>
        </mxCell>
        <mxCell id="rlZl26VW5r2tXbXL2Wnd-255" value="1" style="edgeLabel;html=1;align=center;verticalAlign=middle;resizable=0;points=[];fontFamily=宋体-简;" parent="rlZl26VW5r2tXbXL2Wnd-254" vertex="1" connectable="0">
          <mxGeometry relative="1" as="geometry">
            <mxPoint as="offset" />
          </mxGeometry>
        </mxCell>
        <mxCell id="rlZl26VW5r2tXbXL2Wnd-257" value="额外说明" style="ellipse;whiteSpace=wrap;html=1;fontFamily=宋体-简;" parent="1" vertex="1">
          <mxGeometry x="450" y="40" width="60" height="30" as="geometry" />
        </mxCell>
        <mxCell id="rlZl26VW5r2tXbXL2Wnd-258" value="" style="endArrow=none;html=1;rounded=0;exitX=0.5;exitY=1;exitDx=0;exitDy=0;entryX=0.25;entryY=0;entryDx=0;entryDy=0;fontFamily=宋体-简;" parent="1" source="rlZl26VW5r2tXbXL2Wnd-249" target="rlZl26VW5r2tXbXL2Wnd-242" edge="1">
          <mxGeometry width="50" height="50" relative="1" as="geometry">
            <mxPoint x="294" y="170" as="sourcePoint" />
            <mxPoint x="344" y="120" as="targetPoint" />
          </mxGeometry>
        </mxCell>
        <mxCell id="rlZl26VW5r2tXbXL2Wnd-259" value="" style="endArrow=none;html=1;rounded=0;exitX=0.5;exitY=0;exitDx=0;exitDy=0;entryX=1;entryY=0.5;entryDx=0;entryDy=0;fontFamily=宋体-简;" parent="1" source="rlZl26VW5r2tXbXL2Wnd-248" target="rlZl26VW5r2tXbXL2Wnd-295" edge="1">
          <mxGeometry width="50" height="50" relative="1" as="geometry">
            <mxPoint x="564" y="210" as="sourcePoint" />
            <mxPoint x="720" y="220" as="targetPoint" />
          </mxGeometry>
        </mxCell>
        <mxCell id="rlZl26VW5r2tXbXL2Wnd-260" value="" style="endArrow=none;html=1;rounded=0;exitX=0.5;exitY=1;exitDx=0;exitDy=0;entryX=0.5;entryY=0;entryDx=0;entryDy=0;fontFamily=宋体-简;" parent="1" source="rlZl26VW5r2tXbXL2Wnd-250" target="rlZl26VW5r2tXbXL2Wnd-242" edge="1">
          <mxGeometry width="50" height="50" relative="1" as="geometry">
            <mxPoint x="214" y="90" as="sourcePoint" />
            <mxPoint x="346" y="109" as="targetPoint" />
          </mxGeometry>
        </mxCell>
        <mxCell id="rlZl26VW5r2tXbXL2Wnd-262" value="" style="endArrow=none;html=1;rounded=0;exitX=0.5;exitY=1;exitDx=0;exitDy=0;entryX=0.75;entryY=0;entryDx=0;entryDy=0;fontFamily=宋体-简;" parent="1" source="rlZl26VW5r2tXbXL2Wnd-257" target="rlZl26VW5r2tXbXL2Wnd-242" edge="1">
          <mxGeometry width="50" height="50" relative="1" as="geometry">
            <mxPoint x="234" y="110" as="sourcePoint" />
            <mxPoint x="366" y="129" as="targetPoint" />
          </mxGeometry>
        </mxCell>
        <mxCell id="rlZl26VW5r2tXbXL2Wnd-263" value="场地资源" style="rounded=0;whiteSpace=wrap;html=1;fontFamily=宋体-简;" parent="1" vertex="1">
          <mxGeometry x="50" y="90" width="120" height="40" as="geometry" />
        </mxCell>
        <mxCell id="rlZl26VW5r2tXbXL2Wnd-264" value="选课" style="rhombus;whiteSpace=wrap;html=1;fontFamily=宋体-简;" parent="1" vertex="1">
          <mxGeometry x="280" y="200" width="80" height="40" as="geometry" />
        </mxCell>
        <mxCell id="rlZl26VW5r2tXbXL2Wnd-265" value="成绩" style="ellipse;whiteSpace=wrap;html=1;fontFamily=宋体-简;" parent="1" vertex="1">
          <mxGeometry x="370" y="230" width="50" height="30" as="geometry" />
        </mxCell>
        <mxCell id="rlZl26VW5r2tXbXL2Wnd-266" value="" style="endArrow=none;html=1;rounded=0;exitX=1;exitY=0.5;exitDx=0;exitDy=0;entryX=0.5;entryY=1;entryDx=0;entryDy=0;fontFamily=宋体-简;" parent="1" source="rlZl26VW5r2tXbXL2Wnd-157" target="rlZl26VW5r2tXbXL2Wnd-264" edge="1">
          <mxGeometry width="50" height="50" relative="1" as="geometry">
            <mxPoint x="254" y="280" as="sourcePoint" />
            <mxPoint x="304" y="230" as="targetPoint" />
          </mxGeometry>
        </mxCell>
        <mxCell id="rlZl26VW5r2tXbXL2Wnd-267" value="n" style="edgeLabel;html=1;align=center;verticalAlign=middle;resizable=0;points=[];fontFamily=宋体-简;" parent="rlZl26VW5r2tXbXL2Wnd-266" vertex="1" connectable="0">
          <mxGeometry relative="1" as="geometry">
            <mxPoint x="1" as="offset" />
          </mxGeometry>
        </mxCell>
        <mxCell id="rlZl26VW5r2tXbXL2Wnd-268" value="" style="endArrow=none;html=1;rounded=0;exitX=0.5;exitY=1;exitDx=0;exitDy=0;entryX=0.5;entryY=0;entryDx=0;entryDy=0;fontFamily=宋体-简;" parent="1" source="rlZl26VW5r2tXbXL2Wnd-242" target="rlZl26VW5r2tXbXL2Wnd-264" edge="1">
          <mxGeometry width="50" height="50" relative="1" as="geometry">
            <mxPoint x="414" y="100" as="sourcePoint" />
            <mxPoint x="464" y="50" as="targetPoint" />
          </mxGeometry>
        </mxCell>
        <mxCell id="rlZl26VW5r2tXbXL2Wnd-269" value="m" style="edgeLabel;html=1;align=center;verticalAlign=middle;resizable=0;points=[];fontFamily=宋体-简;" parent="rlZl26VW5r2tXbXL2Wnd-268" vertex="1" connectable="0">
          <mxGeometry relative="1" as="geometry">
            <mxPoint as="offset" />
          </mxGeometry>
        </mxCell>
        <mxCell id="rlZl26VW5r2tXbXL2Wnd-270" value="" style="endArrow=none;html=1;rounded=0;exitX=1;exitY=1;exitDx=0;exitDy=0;entryX=0;entryY=0.5;entryDx=0;entryDy=0;fontFamily=宋体-简;" parent="1" source="rlZl26VW5r2tXbXL2Wnd-264" target="rlZl26VW5r2tXbXL2Wnd-265" edge="1">
          <mxGeometry width="50" height="50" relative="1" as="geometry">
            <mxPoint x="434" y="310" as="sourcePoint" />
            <mxPoint x="484" y="260" as="targetPoint" />
          </mxGeometry>
        </mxCell>
        <mxCell id="rlZl26VW5r2tXbXL2Wnd-271" value="评教分数" style="ellipse;whiteSpace=wrap;html=1;fontFamily=宋体-简;" parent="1" vertex="1">
          <mxGeometry x="370" y="180" width="60" height="30" as="geometry" />
        </mxCell>
        <mxCell id="rlZl26VW5r2tXbXL2Wnd-272" value="" style="endArrow=none;html=1;rounded=0;exitX=1;exitY=0;exitDx=0;exitDy=0;entryX=0;entryY=0.5;entryDx=0;entryDy=0;fontFamily=宋体-简;" parent="1" source="rlZl26VW5r2tXbXL2Wnd-264" target="rlZl26VW5r2tXbXL2Wnd-271" edge="1">
          <mxGeometry width="50" height="50" relative="1" as="geometry">
            <mxPoint x="354" y="240" as="sourcePoint" />
            <mxPoint x="384" y="257" as="targetPoint" />
          </mxGeometry>
        </mxCell>
        <mxCell id="rlZl26VW5r2tXbXL2Wnd-273" value="选课" style="rhombus;whiteSpace=wrap;html=1;fontFamily=宋体-简;" parent="1" vertex="1">
          <mxGeometry x="440" y="200" width="80" height="40" as="geometry" />
        </mxCell>
        <mxCell id="rlZl26VW5r2tXbXL2Wnd-274" value="" style="endArrow=none;html=1;rounded=0;exitX=1;exitY=0.5;exitDx=0;exitDy=0;entryX=0.5;entryY=1;entryDx=0;entryDy=0;fontFamily=宋体-简;" parent="1" source="rlZl26VW5r2tXbXL2Wnd-157" target="rlZl26VW5r2tXbXL2Wnd-273" edge="1">
          <mxGeometry width="50" height="50" relative="1" as="geometry">
            <mxPoint x="224" y="290" as="sourcePoint" />
            <mxPoint x="334" y="250" as="targetPoint" />
            <Array as="points">
              <mxPoint x="480" y="280" />
            </Array>
          </mxGeometry>
        </mxCell>
        <mxCell id="rlZl26VW5r2tXbXL2Wnd-275" value="n" style="edgeLabel;html=1;align=center;verticalAlign=middle;resizable=0;points=[];fontFamily=宋体-简;" parent="rlZl26VW5r2tXbXL2Wnd-274" vertex="1" connectable="0">
          <mxGeometry relative="1" as="geometry">
            <mxPoint as="offset" />
          </mxGeometry>
        </mxCell>
        <mxCell id="rlZl26VW5r2tXbXL2Wnd-276" value="" style="endArrow=none;html=1;rounded=0;exitX=0.5;exitY=1;exitDx=0;exitDy=0;entryX=0.5;entryY=0;entryDx=0;entryDy=0;fontFamily=宋体-简;" parent="1" source="rlZl26VW5r2tXbXL2Wnd-242" target="rlZl26VW5r2tXbXL2Wnd-273" edge="1">
          <mxGeometry width="50" height="50" relative="1" as="geometry">
            <mxPoint x="384" y="40" as="sourcePoint" />
            <mxPoint x="334" y="130" as="targetPoint" />
          </mxGeometry>
        </mxCell>
        <mxCell id="rlZl26VW5r2tXbXL2Wnd-277" value="m" style="edgeLabel;html=1;align=center;verticalAlign=middle;resizable=0;points=[];fontFamily=宋体-简;" parent="rlZl26VW5r2tXbXL2Wnd-276" vertex="1" connectable="0">
          <mxGeometry relative="1" as="geometry">
            <mxPoint as="offset" />
          </mxGeometry>
        </mxCell>
        <mxCell id="rlZl26VW5r2tXbXL2Wnd-278" value="自我介绍" style="ellipse;whiteSpace=wrap;html=1;fontFamily=宋体-简;" parent="1" vertex="1">
          <mxGeometry x="530" y="230" width="60" height="30" as="geometry" />
        </mxCell>
        <mxCell id="rlZl26VW5r2tXbXL2Wnd-279" value="" style="endArrow=none;html=1;rounded=0;exitX=1;exitY=1;exitDx=0;exitDy=0;entryX=0;entryY=0.5;entryDx=0;entryDy=0;fontFamily=宋体-简;" parent="1" source="rlZl26VW5r2tXbXL2Wnd-273" target="rlZl26VW5r2tXbXL2Wnd-278" edge="1">
          <mxGeometry width="50" height="50" relative="1" as="geometry">
            <mxPoint x="514" y="232" as="sourcePoint" />
            <mxPoint x="654" y="262" as="targetPoint" />
          </mxGeometry>
        </mxCell>
        <mxCell id="rlZl26VW5r2tXbXL2Wnd-280" value="志愿顺序" style="ellipse;whiteSpace=wrap;html=1;fontFamily=宋体-简;" parent="1" vertex="1">
          <mxGeometry x="530" y="180" width="60" height="30" as="geometry" />
        </mxCell>
        <mxCell id="rlZl26VW5r2tXbXL2Wnd-281" value="" style="endArrow=none;html=1;rounded=0;exitX=1;exitY=0;exitDx=0;exitDy=0;entryX=0;entryY=0.5;entryDx=0;entryDy=0;fontFamily=宋体-简;" parent="1" source="rlZl26VW5r2tXbXL2Wnd-273" target="rlZl26VW5r2tXbXL2Wnd-280" edge="1">
          <mxGeometry width="50" height="50" relative="1" as="geometry">
            <mxPoint x="514" y="212" as="sourcePoint" />
            <mxPoint x="554" y="259" as="targetPoint" />
          </mxGeometry>
        </mxCell>
        <mxCell id="rlZl26VW5r2tXbXL2Wnd-282" value="学院教务" style="rounded=0;whiteSpace=wrap;html=1;fontFamily=宋体-简;" parent="1" vertex="1">
          <mxGeometry x="510" y="370" width="120" height="40" as="geometry" />
        </mxCell>
        <mxCell id="rlZl26VW5r2tXbXL2Wnd-283" value="工号" style="ellipse;whiteSpace=wrap;html=1;fontStyle=4;fontFamily=宋体-简;" parent="1" vertex="1">
          <mxGeometry x="460" y="330" width="40" height="30" as="geometry" />
        </mxCell>
        <mxCell id="rlZl26VW5r2tXbXL2Wnd-284" value="姓名" style="ellipse;whiteSpace=wrap;html=1;fontFamily=宋体-简;" parent="1" vertex="1">
          <mxGeometry x="510" y="330" width="40" height="30" as="geometry" />
        </mxCell>
        <mxCell id="rlZl26VW5r2tXbXL2Wnd-285" value="性别" style="ellipse;whiteSpace=wrap;html=1;fontFamily=宋体-简;" parent="1" vertex="1">
          <mxGeometry x="560" y="330" width="40" height="30" as="geometry" />
        </mxCell>
        <mxCell id="rlZl26VW5r2tXbXL2Wnd-286" value="" style="endArrow=none;html=1;rounded=0;entryX=0.5;entryY=1;entryDx=0;entryDy=0;exitX=0.2;exitY=0;exitDx=0;exitDy=0;exitPerimeter=0;fontFamily=宋体-简;" parent="1" source="rlZl26VW5r2tXbXL2Wnd-282" target="rlZl26VW5r2tXbXL2Wnd-283" edge="1">
          <mxGeometry width="50" height="50" relative="1" as="geometry">
            <mxPoint x="513" y="370.02" as="sourcePoint" />
            <mxPoint x="629" y="356.40999999999997" as="targetPoint" />
          </mxGeometry>
        </mxCell>
        <mxCell id="rlZl26VW5r2tXbXL2Wnd-287" value="" style="endArrow=none;html=1;rounded=0;entryX=0.5;entryY=1;entryDx=0;entryDy=0;exitX=0.4;exitY=0;exitDx=0;exitDy=0;exitPerimeter=0;fontFamily=宋体-简;" parent="1" source="rlZl26VW5r2tXbXL2Wnd-282" target="rlZl26VW5r2tXbXL2Wnd-284" edge="1">
          <mxGeometry width="50" height="50" relative="1" as="geometry">
            <mxPoint x="537" y="370.02" as="sourcePoint" />
            <mxPoint x="599" y="356.40999999999997" as="targetPoint" />
          </mxGeometry>
        </mxCell>
        <mxCell id="rlZl26VW5r2tXbXL2Wnd-288" value="" style="endArrow=none;html=1;rounded=0;entryX=0.5;entryY=1;entryDx=0;entryDy=0;exitX=0.6;exitY=0;exitDx=0;exitDy=0;exitPerimeter=0;fontFamily=宋体-简;" parent="1" source="rlZl26VW5r2tXbXL2Wnd-282" target="rlZl26VW5r2tXbXL2Wnd-285" edge="1">
          <mxGeometry width="50" height="50" relative="1" as="geometry">
            <mxPoint x="561" y="370.02" as="sourcePoint" />
            <mxPoint x="629" y="356.40999999999997" as="targetPoint" />
          </mxGeometry>
        </mxCell>
        <mxCell id="rlZl26VW5r2tXbXL2Wnd-289" value="联系方式" style="ellipse;whiteSpace=wrap;html=1;fontFamily=宋体-简;" parent="1" vertex="1">
          <mxGeometry x="610" y="330" width="70" height="30" as="geometry" />
        </mxCell>
        <mxCell id="rlZl26VW5r2tXbXL2Wnd-290" value="" style="endArrow=none;html=1;rounded=0;entryX=0.5;entryY=1;entryDx=0;entryDy=0;exitX=0.8;exitY=0;exitDx=0;exitDy=0;exitPerimeter=0;fontFamily=宋体-简;" parent="1" source="rlZl26VW5r2tXbXL2Wnd-282" target="rlZl26VW5r2tXbXL2Wnd-289" edge="1">
          <mxGeometry width="50" height="50" relative="1" as="geometry">
            <mxPoint x="585" y="370.02" as="sourcePoint" />
            <mxPoint x="629" y="356.40999999999997" as="targetPoint" />
          </mxGeometry>
        </mxCell>
        <mxCell id="rlZl26VW5r2tXbXL2Wnd-291" value="" style="endArrow=none;html=1;rounded=0;entryX=0;entryY=0.5;entryDx=0;entryDy=0;exitX=1;exitY=0.5;exitDx=0;exitDy=0;fontFamily=宋体-简;" parent="1" source="rlZl26VW5r2tXbXL2Wnd-282" target="rlZl26VW5r2tXbXL2Wnd-253" edge="1">
          <mxGeometry width="50" height="50" relative="1" as="geometry">
            <mxPoint x="675" y="460" as="sourcePoint" />
            <mxPoint x="640" y="390" as="targetPoint" />
          </mxGeometry>
        </mxCell>
        <mxCell id="rlZl26VW5r2tXbXL2Wnd-292" value="n" style="edgeLabel;html=1;align=center;verticalAlign=middle;resizable=0;points=[];fontFamily=宋体-简;" parent="rlZl26VW5r2tXbXL2Wnd-291" vertex="1" connectable="0">
          <mxGeometry relative="1" as="geometry">
            <mxPoint as="offset" />
          </mxGeometry>
        </mxCell>
        <mxCell id="rlZl26VW5r2tXbXL2Wnd-293" value="&lt;u&gt;场地资源编号&lt;/u&gt;" style="ellipse;whiteSpace=wrap;html=1;fontFamily=宋体-简;" parent="1" vertex="1">
          <mxGeometry x="60" y="40" width="100" height="30" as="geometry" />
        </mxCell>
        <mxCell id="rlZl26VW5r2tXbXL2Wnd-294" value="" style="endArrow=none;html=1;rounded=0;exitX=0.5;exitY=1;exitDx=0;exitDy=0;entryX=0.5;entryY=0;entryDx=0;entryDy=0;fontFamily=宋体-简;" parent="1" source="rlZl26VW5r2tXbXL2Wnd-293" target="rlZl26VW5r2tXbXL2Wnd-263" edge="1">
          <mxGeometry width="50" height="50" relative="1" as="geometry">
            <mxPoint x="130" y="80" as="sourcePoint" />
            <mxPoint x="150" y="100" as="targetPoint" />
          </mxGeometry>
        </mxCell>
        <mxCell id="rlZl26VW5r2tXbXL2Wnd-295" value="开设" style="rhombus;whiteSpace=wrap;html=1;fontFamily=宋体-简;" parent="1" vertex="1">
          <mxGeometry x="560" y="130" width="80" height="40" as="geometry" />
        </mxCell>
        <mxCell id="rlZl26VW5r2tXbXL2Wnd-296" value="" style="endArrow=none;html=1;rounded=0;exitX=0;exitY=0.5;exitDx=0;exitDy=0;entryX=1;entryY=1;entryDx=0;entryDy=0;fontFamily=宋体-简;" parent="1" source="rlZl26VW5r2tXbXL2Wnd-295" target="rlZl26VW5r2tXbXL2Wnd-242" edge="1">
          <mxGeometry width="50" height="50" relative="1" as="geometry">
            <mxPoint x="480" y="120" as="sourcePoint" />
            <mxPoint x="440" y="120" as="targetPoint" />
          </mxGeometry>
        </mxCell>
        <mxCell id="rlZl26VW5r2tXbXL2Wnd-297" value="n" style="edgeLabel;html=1;align=center;verticalAlign=middle;resizable=0;points=[];fontFamily=宋体-简;" parent="rlZl26VW5r2tXbXL2Wnd-296" vertex="1" connectable="0">
          <mxGeometry relative="1" as="geometry">
            <mxPoint as="offset" />
          </mxGeometry>
        </mxCell>
        <mxCell id="rlZl26VW5r2tXbXL2Wnd-298" value="" style="endArrow=none;html=1;rounded=0;exitX=0;exitY=0.5;exitDx=0;exitDy=0;entryX=0.5;entryY=1;entryDx=0;entryDy=0;fontFamily=宋体-简;" parent="1" source="rlZl26VW5r2tXbXL2Wnd-209" target="rlZl26VW5r2tXbXL2Wnd-295" edge="1">
          <mxGeometry width="50" height="50" relative="1" as="geometry">
            <mxPoint x="740" y="160" as="sourcePoint" />
            <mxPoint x="610" y="120" as="targetPoint" />
            <Array as="points">
              <mxPoint x="600" y="280" />
            </Array>
          </mxGeometry>
        </mxCell>
        <mxCell id="rlZl26VW5r2tXbXL2Wnd-299" value="1" style="edgeLabel;html=1;align=center;verticalAlign=middle;resizable=0;points=[];fontFamily=宋体-简;" parent="rlZl26VW5r2tXbXL2Wnd-298" vertex="1" connectable="0">
          <mxGeometry relative="1" as="geometry">
            <mxPoint x="50" as="offset" />
          </mxGeometry>
        </mxCell>
        <mxCell id="rlZl26VW5r2tXbXL2Wnd-300" value="使用" style="rhombus;whiteSpace=wrap;html=1;fontFamily=宋体-简;" parent="1" vertex="1">
          <mxGeometry x="210" y="90" width="80" height="40" as="geometry" />
        </mxCell>
        <mxCell id="rlZl26VW5r2tXbXL2Wnd-301" value="" style="endArrow=none;html=1;rounded=0;fontFamily=宋体-简;entryX=1;entryY=0.5;entryDx=0;entryDy=0;exitX=0;exitY=0.5;exitDx=0;exitDy=0;" parent="1" source="rlZl26VW5r2tXbXL2Wnd-300" target="rlZl26VW5r2tXbXL2Wnd-263" edge="1">
          <mxGeometry width="50" height="50" relative="1" as="geometry">
            <mxPoint x="190" y="150" as="sourcePoint" />
            <mxPoint x="170" y="130" as="targetPoint" />
          </mxGeometry>
        </mxCell>
        <mxCell id="rlZl26VW5r2tXbXL2Wnd-302" value="m" style="edgeLabel;html=1;align=center;verticalAlign=middle;resizable=0;points=[];fontFamily=宋体-简;" parent="rlZl26VW5r2tXbXL2Wnd-301" vertex="1" connectable="0">
          <mxGeometry relative="1" as="geometry">
            <mxPoint as="offset" />
          </mxGeometry>
        </mxCell>
        <mxCell id="rlZl26VW5r2tXbXL2Wnd-303" value="" style="endArrow=none;html=1;rounded=0;exitX=1;exitY=0.5;exitDx=0;exitDy=0;entryX=0;entryY=0.5;entryDx=0;entryDy=0;fontFamily=宋体-简;" parent="1" source="rlZl26VW5r2tXbXL2Wnd-300" target="rlZl26VW5r2tXbXL2Wnd-242" edge="1">
          <mxGeometry width="50" height="50" relative="1" as="geometry">
            <mxPoint x="250" y="130" as="sourcePoint" />
            <mxPoint x="290" y="130" as="targetPoint" />
          </mxGeometry>
        </mxCell>
        <mxCell id="rlZl26VW5r2tXbXL2Wnd-304" value="n" style="edgeLabel;html=1;align=center;verticalAlign=middle;resizable=0;points=[];fontFamily=宋体-简;" parent="rlZl26VW5r2tXbXL2Wnd-303" vertex="1" connectable="0">
          <mxGeometry relative="1" as="geometry">
            <mxPoint as="offset" />
          </mxGeometry>
        </mxCell>
        <mxCell id="rlZl26VW5r2tXbXL2Wnd-305" value="学时" style="ellipse;whiteSpace=wrap;html=1;fontFamily=宋体-简;" parent="1" vertex="1">
          <mxGeometry x="840" y="40" width="40" height="30" as="geometry" />
        </mxCell>
        <mxCell id="rlZl26VW5r2tXbXL2Wnd-306" value="" style="endArrow=none;html=1;rounded=0;entryX=0.5;entryY=1;entryDx=0;entryDy=0;exitX=1;exitY=0;exitDx=0;exitDy=0;fontFamily=宋体-简;" parent="1" source="rlZl26VW5r2tXbXL2Wnd-228" target="rlZl26VW5r2tXbXL2Wnd-305" edge="1">
          <mxGeometry width="50" height="50" relative="1" as="geometry">
            <mxPoint x="700" y="100" as="sourcePoint" />
            <mxPoint x="770" y="80" as="targetPoint" />
          </mxGeometry>
        </mxCell>
        <mxCell id="rlZl26VW5r2tXbXL2Wnd-307" value="开设学期" style="ellipse;whiteSpace=wrap;html=1;fontFamily=宋体-简;" parent="1" vertex="1">
          <mxGeometry x="220" y="150" width="60" height="30" as="geometry" />
        </mxCell>
        <mxCell id="rlZl26VW5r2tXbXL2Wnd-308" value="" style="endArrow=none;html=1;rounded=0;exitX=0.5;exitY=1;exitDx=0;exitDy=0;entryX=0.5;entryY=0;entryDx=0;entryDy=0;fontFamily=宋体-简;" parent="1" source="rlZl26VW5r2tXbXL2Wnd-300" target="rlZl26VW5r2tXbXL2Wnd-307" edge="1">
          <mxGeometry width="50" height="50" relative="1" as="geometry">
            <mxPoint x="280" y="120" as="sourcePoint" />
            <mxPoint x="320" y="120" as="targetPoint" />
          </mxGeometry>
        </mxCell>
        <mxCell id="rlZl26VW5r2tXbXL2Wnd-309" value="场地名称" style="ellipse;whiteSpace=wrap;html=1;fontFamily=宋体-简;" parent="1" vertex="1">
          <mxGeometry x="40" y="150" width="60" height="30" as="geometry" />
        </mxCell>
        <mxCell id="rlZl26VW5r2tXbXL2Wnd-310" value="可用时间" style="ellipse;whiteSpace=wrap;html=1;fontFamily=宋体-简;" parent="1" vertex="1">
          <mxGeometry x="120" y="150" width="60" height="30" as="geometry" />
        </mxCell>
        <mxCell id="rlZl26VW5r2tXbXL2Wnd-311" value="" style="endArrow=none;html=1;rounded=0;exitX=0.75;exitY=1;exitDx=0;exitDy=0;entryX=0.5;entryY=0;entryDx=0;entryDy=0;fontFamily=宋体-简;" parent="1" source="rlZl26VW5r2tXbXL2Wnd-263" target="rlZl26VW5r2tXbXL2Wnd-310" edge="1">
          <mxGeometry width="50" height="50" relative="1" as="geometry">
            <mxPoint x="260" y="140" as="sourcePoint" />
            <mxPoint x="260" y="160" as="targetPoint" />
          </mxGeometry>
        </mxCell>
        <mxCell id="rlZl26VW5r2tXbXL2Wnd-312" value="" style="endArrow=none;html=1;rounded=0;exitX=0.25;exitY=1;exitDx=0;exitDy=0;entryX=0.5;entryY=0;entryDx=0;entryDy=0;fontFamily=宋体-简;" parent="1" source="rlZl26VW5r2tXbXL2Wnd-263" target="rlZl26VW5r2tXbXL2Wnd-309" edge="1">
          <mxGeometry width="50" height="50" relative="1" as="geometry">
            <mxPoint x="150" y="140" as="sourcePoint" />
            <mxPoint x="160" y="160" as="targetPoint" />
          </mxGeometry>
        </mxCell>
      </root>
    </mxGraphModel>
  </diagram>
</mxfile>
